<svg fill="#ffffff" viewBox="0 0 24 24" xmlns="http://www.w3.org/2000/svg">
<path d="M18.223 3.083a1.251 1.251 0 0 1 0 1.768L17.08 5.993h1.17A3.75 3.75 0 0 1 22 9.744v7.5a3.75 3.75 0 0 1-3.75 3.75H5.75A3.75 3.75 0 0 1 2 17.244v-7.5a3.75 3.75 0 0 1 3.75-3.75h1.166L5.775 4.852a1.25 1.25 0 1 1 1.767-1.768l2.652 2.652c.079.08.145.165.198.257h3.213c.053-.092.12-.18.199-.258l2.651-2.652a1.25 1.25 0 0 1 1.768 0Zm.027 5.42H5.75A1.25 1.25 0 0 0 4.503 9.66l-.003.094v7.5c0 .66.51 1.2 1.157 1.246l.093.005h12.5a1.25 1.25 0 0 0 1.247-1.157l.003-.093v-7.5c0-.69-.56-1.25-1.25-1.25v-.002Zm-10 2.5c.69 0 1.25.56 1.25 1.25v1.25a1.25 1.25 0 0 1-2.5 0v-1.25c0-.69.56-1.25 1.25-1.25Zm7.5 0c.69 0 1.25.56 1.25 1.25v1.25a1.25 1.25 0 0 1-2.5 0v-1.25c0-.69.56-1.25 1.25-1.25Z"></path>
</svg>