<svg fill="#ffffff" viewBox="0 0 24 24" xmlns="http://www.w3.org/2000/svg">
<path d="M19 20.997H5v1a1 1 0 0 1-1 1H3a1 1 0 0 1-1-1v-9l2.417-4.029a2 2 0 0 1 1.715-.971h11.736a2 2 0 0 1 1.715.971L22 12.997v9a1 1 0 0 1-1 1h-1a1 1 0 0 1-1-1v-1Zm-14.668-8h15.336l-1.8-3H6.132l-1.8 3Zm2.168 5a1.5 1.5 0 1 0 0-3 1.5 1.5 0 0 0 0 3Zm11 0a1.5 1.5 0 1 0 0-3 1.5 1.5 0 0 0 0 3ZM5.44 3.437 6.5 2.375l1.06 1.06a1.5 1.5 0 1 1-2.121 0l.001.002Zm5.5 0L12 2.375l1.06 1.06a1.5 1.5 0 1 1-2.121 0l.001.002Zm5.5 0 1.06-1.061 1.06 1.06a1.5 1.5 0 1 1-2.121 0l.001.001Z"></path>
</svg>