<svg fill="#ffffff" viewBox="0 0 24 24" xmlns="http://www.w3.org/2000/svg">
<path d="M16.33 13.5A6.99 6.99 0 0 0 19 8h2a8.987 8.987 0 0 1-3.662 7.246l2.528 4.378a2 2 0 0 1-.732 2.732l-3.527-6.108A8.97 8.97 0 0 1 12 17a8.97 8.97 0 0 1-3.607-.752l-3.527 6.108a2 2 0 0 1-.732-2.732l5.063-8.77A4.002 4.002 0 0 1 11 4.126V2h2v2.126a4.003 4.003 0 0 1 1.803 6.728L16.33 13.5Zm-1.73 1.002-1.528-2.647c-.7.194-1.441.194-2.142 0l-1.528 2.647a6.99 6.99 0 0 0 2.6.498c.917 0 1.794-.177 2.598-.498ZM12 9a1 1 0 1 0 0-2 1 1 0 0 0 0 2Z"></path>
</svg>