<svg fill="#ffffff" viewBox="0 0 24 24" xmlns="http://www.w3.org/2000/svg">
<path d="M2.05 12.997h5.477a17.9 17.9 0 0 0 2.925 8.88 10.005 10.005 0 0 1-8.402-8.88Zm0-2a10.005 10.005 0 0 1 8.402-8.88 17.9 17.9 0 0 0-2.925 8.88H2.05Zm19.9 0h-5.477a17.9 17.9 0 0 0-2.925-8.88 10.005 10.005 0 0 1 8.402 8.88Zm0 2a10.005 10.005 0 0 1-8.402 8.88 17.9 17.9 0 0 0 2.925-8.88h5.478-.001Zm-12.42 0h4.94A15.908 15.908 0 0 1 12 20.59a15.908 15.908 0 0 1-2.47-7.592Zm0-2A15.908 15.908 0 0 1 12 3.405a15.908 15.908 0 0 1 2.47 7.592H9.53Z"></path>
</svg>