<svg fill="#ffffff" viewBox="0 0 24 24" xmlns="http://www.w3.org/2000/svg">
<path d="M21.158 4.258c.034 3.5.591 4.81.788 6.7a9.98 9.98 0 0 1-2.875 8.113c-3.666 3.666-9.471 3.89-13.4.673l2.852-2.853a6.002 6.002 0 0 0 8.368-8.368l4.267-4.265Zm-2.83-.002-2.851 2.853a6.002 6.002 0 0 0-8.368 8.368l-4.267 4.265c-.034-3.5-.591-4.811-.788-6.701a9.98 9.98 0 0 1 2.875-8.112c3.666-3.666 9.471-3.89 13.4-.673h-.001ZM12 8c2.21 0 4 1.79 4 4s-1.79 4-4 4-4-1.79-4-4 1.79-4 4-4Zm0 2.5a1.5 1.5 0 1 0 .001 3 1.5 1.5 0 0 0-.001-3Z"></path>
</svg>