<svg fill="#ffffff" viewBox="0 0 24 24" xmlns="http://www.w3.org/2000/svg">
<path d="M8.612 20.122c-2.744 1.49-5.113 1.8-6.422.49-1.344-1.34-.628-4.85 1.313-8.373a23.202 23.202 0 0 1 3.624-4.917c.187-.187 1.125-1.124 1.187-1.124 0 0-.5.313-.562.313-1.95 1.095-3.663 3.08-4.037 3.525a9.004 9.004 0 0 1 9.468-7.009c3.095-1.402 5.974-1.726 7.192-.51C21.5 3.64 21.437 5.512 20.5 7.76c-.01.021-.018.043-.027.064a8.96 8.96 0 0 1 1.027 4.18c0 .38-.023.752-.069 1.12h-.804a4.21 4.21 0 0 1-.142.002H8.689v.187c.062 1.997 1.812 3.744 3.937 3.744 1.5 0 2.937-.81 3.562-1.997h4.78a9.005 9.005 0 0 1-12.356 5.063Zm-.607-.32a9.03 9.03 0 0 1-3.972-4.743c-1.161 2.282-1.46 4.19-.469 5.18.813.812 2.438.624 4.438-.436l.003-.002ZM20.172 7.293l.015-.034c.75-1.622.813-2.994.125-3.806-.869-.868-2.54-.75-4.522.168a9.033 9.033 0 0 1 4.382 3.672Zm-3.609 3.46v-.06c-.125-2.061-1.75-3.621-3.75-3.621-2.125 0-3.936 1.685-4.061 3.62v.062h7.811Z"></path>
</svg>