<svg fill="#ffffff" viewBox="0 0 24 24" xmlns="http://www.w3.org/2000/svg">
<path d="M18.663 10.838a.526.526 0 0 1-.526.525h-1.462v.938h1.462a.524.524 0 1 1 0 1.05H16.15a.526.526 0 0 1-.522-.525V8.85c0-.287.235-.525.525-.525h1.988a.525.525 0 0 1-.003 1.05h-1.462v.938h1.462c.291 0 .526.237.526.525h-.001Zm-4.098 2.485a.537.537 0 0 1-.166.025.515.515 0 0 1-.425-.208l-2.036-2.764v2.45a.525.525 0 0 1-1.047 0V8.85a.522.522 0 0 1 .52-.523c.162 0 .312.086.412.211l2.052 2.775V8.85c0-.287.235-.525.525-.525.287 0 .525.238.525.525v3.976a.524.524 0 0 1-.36.497Zm-4.95.027a.526.526 0 0 1-.523-.524V8.85c0-.287.236-.525.525-.525.289 0 .524.238.524.525v3.976a.527.527 0 0 1-.526.524Zm-1.53 0H6.098a.528.528 0 0 1-.525-.524V8.85a.527.527 0 0 1 1.05 0v3.45h1.464a.525.525 0 1 1 0 1.05h-.002ZM12 2.57c-5.513 0-10 3.643-10 8.118 0 4.01 3.558 7.37 8.363 8.007.325.068.769.215.881.492.1.25.066.638.032.9l-.137.85c-.037.25-.2.988.874.537 1.076-.449 5.764-3.398 7.864-5.812C21.313 14.087 22 12.475 22 10.688c0-4.475-4.488-8.118-10-8.118Z"></path>
</svg>