<svg fill="#ffffff" viewBox="0 0 24 24" xmlns="http://www.w3.org/2000/svg">
<path d="M21.258 13.99c-.274 1.41-2.456 2.955-4.962 3.254-1.306.156-2.593.3-3.965.236a23.364 23.364 0 0 1-4.014-.535c0 .218.014.426.04.62.292 2.215 2.196 2.347 4 2.41 1.82.062 3.44-.45 3.44-.45l.076 1.646s-1.274.684-3.542.81c-1.25.068-2.803-.032-4.612-.51-3.923-1.039-4.598-5.22-4.701-9.464-.031-1.26-.012-2.447-.012-3.44 0-4.34 2.843-5.611 2.843-5.611 1.433-.658 3.892-.935 6.45-.956h.062c2.557.02 5.018.298 6.45.956 0 0 2.844 1.272 2.844 5.61 0 0 .036 3.201-.397 5.424Zm-2.956-5.087c0-1.074-.273-1.927-.822-2.558-.567-.631-1.308-.955-2.23-.955-1.064 0-1.87.41-2.404 1.228l-.518.87-.52-.87C11.277 5.8 10.47 5.39 9.406 5.39c-.921 0-1.663.324-2.23.955-.548.631-.821 1.484-.821 2.558v5.253h2.08V9.057c0-1.075.453-1.62 1.358-1.62 1 0 1.5.647 1.5 1.927v2.79h2.07v-2.79c0-1.28.5-1.927 1.5-1.927.906 0 1.359.545 1.359 1.62v5.1h2.08V8.902v.001Z"></path>
</svg>