<svg fill="#ffffff" viewBox="0 0 24 24" xmlns="http://www.w3.org/2000/svg">
<path d="m13.196 2.266 3.25 5.63a1 1 0 0 1-.366 1.365l-1.3.75 1.001 1.732-1.732 1-1-1.733-1.299.75a1 1 0 0 1-1.366-.365L8.546 8.213a5.002 5.002 0 0 0-3.222 6.56A4.976 4.976 0 0 1 8 13.999c1.684 0 3.174.833 4.08 2.109l7.688-4.44 1 1.733-7.878 4.549a5.038 5.038 0 0 1 .01 2.049H21v2H4a4.979 4.979 0 0 1-1-3c0-1.007.298-1.945.81-2.73a7.001 7.001 0 0 1 3.717-9.82l-.393-.682a2 2 0 0 1 .732-2.732l2.598-1.5a2 2 0 0 1 2.732.732Z"></path>
</svg>