<svg fill="#ffffff" viewBox="0 0 24 24" xmlns="http://www.w3.org/2000/svg">
<path d="m5.636 12.708 1.828 1.83L8.88 13.12l-1.83-1.827L8.464 9.88l1.829 1.828 1.414-1.414L9.88 8.465l1.414-1.414 1.826 1.83 1.415-1.415-1.829-1.828 2.829-2.828a1 1 0 0 1 1.414 0l4.242 4.242a1 1 0 0 1 0 1.414L8.464 21.193a1 1 0 0 1-1.414 0l-4.242-4.242a1 1 0 0 1 0-1.414l2.828-2.829Zm8.485 5.656 4.243-4.242L21 16.758v4.243h-4.242l-2.637-2.637ZM5.636 9.88 2.807 7.051a1 1 0 0 1 0-1.415l2.829-2.828a1 1 0 0 1 1.414 0l2.83 2.828L5.636 9.88Z"></path>
</svg>