<svg fill="#ffffff" viewBox="0 0 24 24" xmlns="http://www.w3.org/2000/svg">
<path d="m19.562 12.099 1.531 2.652a3.5 3.5 0 0 1-3.03 5.25H16v2l-5-3.5 5-3.5v2h2.062a.498.498 0 0 0 .471-.668l-.038-.082-1.53-2.652 2.597-1.5ZM7.737 9.385l.53 6.08-1.73-1-1.032 1.786a.498.498 0 0 0 .343.742l.09.008H9v3H5.938a3.5 3.5 0 0 1-3.031-5.25l1.031-1.786-1.732-1 5.53-2.58h.001ZM13.75 2.97c.532.307.974.749 1.281 1.28l1.03 1.787 1.733-1-.53 6.08-5.532-2.58 1.732-1-1.03-1.786a.498.498 0 0 0-.814-.073l-.053.073-1.53 2.652-2.599-1.5 1.53-2.652A3.5 3.5 0 0 1 13.75 2.97Z"></path>
</svg>