<svg fill="#ffffff" viewBox="0 0 24 24" xmlns="http://www.w3.org/2000/svg">
<path d="M9.954 2.213a9.99 9.99 0 0 1 4.091-.002A3.994 3.994 0 0 0 16 5.073a3.993 3.993 0 0 0 3.457.26A9.99 9.99 0 0 1 21.5 8.88a3.994 3.994 0 0 0-1.5 3.124 3.99 3.99 0 0 0 1.502 3.124 10.042 10.042 0 0 1-2.046 3.543 3.993 3.993 0 0 0-4.76 1.468 3.993 3.993 0 0 0-.65 1.653 9.992 9.992 0 0 1-4.09.004A3.993 3.993 0 0 0 8 18.93a3.992 3.992 0 0 0-3.457-.26A9.99 9.99 0 0 1 2.5 15.124a3.994 3.994 0 0 0 1.106-4.856 3.993 3.993 0 0 0-1.108-1.39 10.043 10.043 0 0 1 2.046-3.543 3.993 3.993 0 0 0 4.76-1.468 4 4 0 0 0 .65-1.653v-.001ZM12 15.003a3 3 0 1 0 0-6 3 3 0 0 0 0 6Z"></path>
</svg>