<svg fill="#ffffff" viewBox="0 0 24 24" xmlns="http://www.w3.org/2000/svg">
<path d="M10.464 8.599c.265 0 .48 2.105.48 4.704l-.001.35c-.019 2.434-.226 4.353-.479 4.353-.256 0-.465-1.965-.48-4.44v-.352c.005-2.558.218-4.615.48-4.615Zm-1.664.96c.259 0 .47 1.8.48 4.054v.34c-.01 2.253-.221 4.053-.48 4.053-.255 0-.464-1.755-.48-3.97v-.34l.002-.34c.025-2.133.23-3.797.478-3.797Zm-1.664 0c.255 0 .464 1.755.48 3.97v.34l-.002.34c-.025 2.133-.23 3.797-.478 3.797-.259 0-.47-1.8-.48-4.053v-.34c.01-2.255.221-4.054.48-4.054Zm-1.664.575c.265 0 .48 1.762.48 3.936l-.002.335c-.02 2.018-.227 3.601-.478 3.601-.262 0-.474-1.716-.48-3.851v-.168c.006-2.136.218-3.853.48-3.853Zm-1.664 1.729c.265 0 .48 1.375.48 3.072v.157c-.013 1.623-.223 2.914-.48 2.914-.265 0-.48-1.375-.48-3.072v-.157c.013-1.623.223-2.914.48-2.914Zm10.784-4.8c2.58 0 4.72 1.886 5.118 4.353a3.36 3.36 0 1 1 .993 6.59H12.48a.768.768 0 0 1-.768-.768V7.936a5.16 5.16 0 0 1 2.88-.873ZM2.144 11.67c.265 0 .48 1.332.48 2.976v.155c-.014 1.57-.223 2.82-.48 2.82-.26 0-.473-1.29-.48-2.897v-.079c0-1.644.215-2.976.48-2.976Zm-1.664.96c.265 0 .48.945.48 2.111v.131C.944 15.98.735 16.855.48 16.855c-.265 0-.48-.947-.48-2.113v-.13c.016-1.105.225-1.982.48-1.982Z"></path>
</svg>