<svg fill="#ffffff" viewBox="0 0 24 24" xmlns="http://www.w3.org/2000/svg">
<path d="M13.2 2.005c8.04.087 8.8 1.244 8.8 9.994l-.006 1.2c-.087 8.04-1.244 8.8-9.994 8.8l-1.2-.006c-7.658-.083-8.711-1.136-8.794-8.795L2 11.69l.006-.89c.085-7.85 1.19-8.76 9.382-8.8l1.811.005h.001ZM8.25 6.999h-.583a.667.667 0 0 0-.66.568L7 7.666v3.666c0 .335.247.612.568.66l.099.007h.583a3.75 3.75 0 0 1 3.745 3.55l.005.2v.583c0 .335.247.612.568.66l.099.007h3.666a.667.667 0 0 0 .66-.568l.007-.099v-.583a8.75 8.75 0 0 0-8.492-8.746l-.258-.004Z"></path>
</svg>