<svg fill="#ffffff" viewBox="0 0 24 24" xmlns="http://www.w3.org/2000/svg">
<path d="m13.717 1.945 3.734 1.434-.717 1.867-.934-.359-.746 1.945A6.042 6.042 0 0 1 17 8.678l1.903-.847-.407-.914 1.827-.813 1.627 3.654-1.827.813-.407-.913-1.902.847a6.023 6.023 0 0 1 .07 2.68l1.944.746.358-.933 1.868.717-1.434 3.734-1.867-.717.358-.933-1.944-.747a6.042 6.042 0 0 1-1.846 1.945l.847 1.903.914-.407.813 1.827-3.654 1.627-.813-1.827.913-.407-.847-1.902a6.023 6.023 0 0 1-2.68.07l-.747 1.944.934.358-.717 1.868-3.734-1.434.717-1.867.932.358.748-1.944A6.055 6.055 0 0 1 7 15.318l-1.903.847.407.914-1.827.813-1.627-3.654 1.827-.813.406.914 1.903-.848a6.07 6.07 0 0 1-.069-2.68l-1.945-.746-.357.933-1.868-.717 1.434-3.733 1.867.717-.359.933 1.945.747A6.048 6.048 0 0 1 8.68 6.998l-.847-1.903-.914.407-.813-1.827L9.76 2.05l.813 1.827-.913.407.847 1.902a6.023 6.023 0 0 1 2.68-.07l.745-1.945L13 3.813l.717-1.868ZM10.134 13.23a1 1 0 1 0 1.733 1 1 1 0 0 0-1.733-1ZM14 10.998A1 1 0 1 0 14.001 13a1 1 0 0 0 0-2ZM10.5 9.4a1 1 0 1 0 1.001 1.733 1 1 0 0 0-1-1.733Z"></path>
</svg>