<svg fill="#ffffff" viewBox="0 0 24 24" xmlns="http://www.w3.org/2000/svg">
<path d="M5.457 18.187C3.358 16.679 2 14.402 2 11.91c0-4.585 4.475-8.308 10-8.308s10 3.723 10 8.308c0 4.584-4.475 8.307-10 8.307a11.361 11.361 0 0 1-3.272-.461c-.092-.03-.216-.03-.308-.03-.185 0-.37.06-.525.153l-2.191 1.26a.441.441 0 0 1-.185.063.342.342 0 0 1-.34-.338c0-.093.03-.154.062-.247.03-.03.308-1.046.463-1.661 0-.062.03-.154.03-.216 0-.246-.092-.43-.277-.553Zm3.21-7.674c.717 0 1.285-.568 1.285-1.285 0-.718-.568-1.286-1.285-1.286-.718 0-1.285.568-1.285 1.286 0 .717.567 1.285 1.285 1.285Zm6.666 0c.718 0 1.285-.568 1.285-1.285 0-.718-.567-1.286-1.285-1.286-.717 0-1.285.568-1.285 1.286 0 .717.568 1.285 1.285 1.285Z"></path>
</svg>