<svg fill="#ffffff" viewBox="0 0 24 24" xmlns="http://www.w3.org/2000/svg">
<path d="M12 17.998c.714 0 1.37.25 1.886.666l-1.885 2.334-1.886-2.334A2.987 2.987 0 0 1 12 17.998ZM2.809 1.39l17.677 17.678-1.413 1.414-3.682-3.68-.248.306a4.98 4.98 0 0 0-3.141-1.111 4.98 4.98 0 0 0-3.142 1.11l-1.885-2.334a7.964 7.964 0 0 1 4.623-1.766l-1.774-1.772a9.964 9.964 0 0 0-4.106 1.982L3.83 10.885a12.984 12.984 0 0 1 3.586-2.057l-1.53-1.53a15 15 0 0 0-3.31 2.03L.688 6.996A18.018 18.018 0 0 1 3.64 5.054L1.393 2.806 2.808 1.39Zm13.276 10.477L12.217 8 12 7.998a12.94 12.94 0 0 1 8.17 2.887l-1.886 2.334a10.006 10.006 0 0 0-2.2-1.352Zm-4.083-8.87c4.284 0 8.22 1.497 11.31 3.997l-1.884 2.333A14.937 14.937 0 0 0 12 5.998c-.572 0-1.136.032-1.69.094L7.722 3.509A18.055 18.055 0 0 1 12 2.998Z"></path>
</svg>