<svg fill="#ffffff" viewBox="0 0 24 24" xmlns="http://www.w3.org/2000/svg">
<path d="M20.462 3.227c.153 0 .307.078.384.155a.49.49 0 0 1 0 .46l-6.077 10.77 3.846 7.077a.49.49 0 0 1 0 .462.589.589 0 0 1-.384.154h-2.77c-.384 0-.615-.308-.77-.54l-3.922-7.153c.23-.307 6.154-10.845 6.154-10.845.154-.307.385-.538.77-.538h2.769v-.002Zm-11.54 3.77c.386 0 .616.308.77.538l1.923 3.308c-.153.154-3 5.23-3 5.23-.153.232-.384.54-.77.54h-2.69a.589.589 0 0 1-.385-.154.49.49 0 0 1 0-.462l2.846-5.154-1.846-3.23a.49.49 0 0 1 0-.462.588.588 0 0 1 .385-.154h2.77-.001Z"></path>
</svg>