<svg fill="#ffffff" viewBox="0 0 24 24" xmlns="http://www.w3.org/2000/svg">
<path d="M13.373 18.895h1.452l.478 1.637 2.605-1.637h3.07V5.393h-7.605v13.502Zm1.545-12.037h4.515v10.57H17.7l-1.73 1.087-.314-1.084-.74-.003V6.858Zm-2.83 4.712H8.846c.094-1.519.14-3.04.136-4.56h3.172s.122-1.4-.532-1.384H6.135c.216-.814.488-1.655.813-2.524 0 0-1.493 0-2 1.339-.211.552-.82 2.677-1.904 4.848.365-.04 1.573-.073 2.284-1.378.13-.366.156-.413.318-.902h1.79c0 .65-.074 4.15-.104 4.558h-3.24c-.73 0-.965 1.466-.965 1.466h4.066c-.273 3.096-1.737 5.705-4.393 7.765 1.27.363 2.536-.057 3.162-.614 0 0 1.425-1.297 2.206-4.298l3.346 4.03s.49-1.668-.077-2.481c-.47-.554-1.74-2.052-2.281-2.595l-.907.72c.27-.867.433-1.71.488-2.524h3.822s-.005-1.466-.47-1.466h-.001Z"></path>
</svg>