<svg id="visual" viewBox="0 0 960 540" width="960" height="540" xmlns="http://www.w3.org/2000/svg" xmlns:xlink="http://www.w3.org/1999/xlink" version="1.1"><path d="M0 452L16 448.8C32 445.7 64 439.3 96 434.5C128 429.7 160 426.3 192 421.3C224 416.3 256 409.7 288 408.3C320 407 352 411 384 415C416 419 448 423 480 427.3C512 431.7 544 436.3 576 432.2C608 428 640 415 672 411.8C704 408.7 736 415.3 768 415.7C800 416 832 410 864 406.8C896 403.7 928 403.3 944 403.2L960 403L960 541L944 541C928 541 896 541 864 541C832 541 800 541 768 541C736 541 704 541 672 541C640 541 608 541 576 541C544 541 512 541 480 541C448 541 416 541 384 541C352 541 320 541 288 541C256 541 224 541 192 541C160 541 128 541 96 541C64 541 32 541 16 541L0 541Z" fill="#96bce6" stroke-linecap="round" stroke-linejoin="miter"></path></svg>