<svg id="visual" viewBox="0 0 960 540" width="960" height="540" xmlns="http://www.w3.org/2000/svg" xmlns:xlink="http://www.w3.org/1999/xlink" version="1.1"><path d="M0 289L16 291.8C32 294.7 64 300.3 96 303.3C128 306.3 160 306.7 192 295.7C224 284.7 256 262.3 288 263.2C320 264 352 288 384 294.7C416 301.3 448 290.7 480 289.8C512 289 544 298 576 308C608 318 640 329 672 330.5C704 332 736 324 768 306.8C800 289.7 832 263.3 864 251.2C896 239 928 241 944 242L960 243L960 541L944 541C928 541 896 541 864 541C832 541 800 541 768 541C736 541 704 541 672 541C640 541 608 541 576 541C544 541 512 541 480 541C448 541 416 541 384 541C352 541 320 541 288 541C256 541 224 541 192 541C160 541 128 541 96 541C64 541 32 541 16 541L0 541Z" fill="#0077b6" stroke-linecap="round" stroke-linejoin="miter"></path></svg>