<svg id="visual" viewBox="0 0 960 540" width="960" height="540" xmlns="http://www.w3.org/2000/svg" xmlns:xlink="http://www.w3.org/1999/xlink" version="1.1"><path d="M0 488L16 489.7C32 491.3 64 494.7 96 493.5C128 492.3 160 486.7 192 485.2C224 483.7 256 486.3 288 484.5C320 482.7 352 476.3 384 473.2C416 470 448 470 480 472.3C512 474.7 544 479.3 576 482C608 484.7 640 485.3 672 487.3C704 489.3 736 492.7 768 492.2C800 491.7 832 487.3 864 486.7C896 486 928 489 944 490.5L960 492L960 541L944 541C928 541 896 541 864 541C832 541 800 541 768 541C736 541 704 541 672 541C640 541 608 541 576 541C544 541 512 541 480 541C448 541 416 541 384 541C352 541 320 541 288 541C256 541 224 541 192 541C160 541 128 541 96 541C64 541 32 541 16 541L0 541Z" fill="#c8e1ff" stroke-linecap="round" stroke-linejoin="miter"></path></svg>