<svg id="visual" viewBox="0 0 960 540" width="960" height="540" xmlns="http://www.w3.org/2000/svg" xmlns:xlink="http://www.w3.org/1999/xlink" version="1.1"><path d="M0 414L16 406.5C32 399 64 384 96 370.5C128 357 160 345 192 340.8C224 336.7 256 340.3 288 347.3C320 354.3 352 364.7 384 363.2C416 361.7 448 348.3 480 342.8C512 337.3 544 339.7 576 345C608 350.3 640 358.7 672 358.3C704 358 736 349 768 348.7C800 348.3 832 356.7 864 357.3C896 358 928 351 944 347.5L960 344L960 541L944 541C928 541 896 541 864 541C832 541 800 541 768 541C736 541 704 541 672 541C640 541 608 541 576 541C544 541 512 541 480 541C448 541 416 541 384 541C352 541 320 541 288 541C256 541 224 541 192 541C160 541 128 541 96 541C64 541 32 541 16 541L0 541Z" fill="#6099ce" stroke-linecap="round" stroke-linejoin="miter"></path></svg>