<?xml version="1.0" standalone="no"?>
<!DOCTYPE svg PUBLIC "-//W3C//DTD SVG 20010904//EN"
  "http://www.w3.org/TR/2001/REC-SVG-20010904/DTD/svg10.dtd">
<!-- Created with Vectornator (http://vectornator.io/) -->
<svg version="1.0" xmlns="http://www.w3.org/2000/svg"
     width="260.000000pt" height="260.000000pt" viewBox="0 0 260.000000 260.000000"
     preserveAspectRatio="xMidYMid meet">
<defs>
<filter color-interpolation-filters="sRGB" filterUnits="userSpaceOnUse" height="153.895" id="Filter" width="130.856" x="94.2646" y="139.447">
<feGaussianBlur in="SourceGraphic" result="Blur" stdDeviation="12.5"/>
</filter>
<filter color-interpolation-filters="sRGB" filterUnits="userSpaceOnUse" height="153.9" id="Filter_2" width="130.869" x="-40.2131" y="137.642">
<feGaussianBlur in="SourceGraphic" result="Blur" stdDeviation="12.5"/>
</filter>
<filter color-interpolation-filters="sRGB" filterUnits="userSpaceOnUse" height="160.184" id="Filter_3" width="130.934" x="3.50666" y="10.4267">
<feGaussianBlur in="SourceGraphic" result="Blur" stdDeviation="12.5"/>
</filter>
<filter color-interpolation-filters="sRGB" filterUnits="userSpaceOnUse" height="136.402" id="Filter_4" width="163.322" x="140.243" y="160.25">
<feGaussianBlur in="SourceGraphic" result="Blur" stdDeviation="12.5"/>
</filter>
<filter color-interpolation-filters="sRGB" filterUnits="userSpaceOnUse" height="130.021" id="Filter_5" width="153.554" x="-3.96368" y="165.748">
<feGaussianBlur in="SourceGraphic" result="Blur" stdDeviation="12.5"/>
</filter>
<filter color-interpolation-filters="sRGB" filterUnits="userSpaceOnUse" height="131.99" id="Filter_6" width="154.368" x="-33.1361" y="-37.8056">
<feGaussianBlur in="SourceGraphic" result="Blur" stdDeviation="12.5"/>
</filter>
<filter color-interpolation-filters="sRGB" filterUnits="userSpaceOnUse" height="153.116" id="Filter_7" width="151.528" x="58.1519" y="91.5107">
<feGaussianBlur in="SourceGraphic" result="Blur" stdDeviation="12.5"/>
</filter>
<filter color-interpolation-filters="sRGB" filterUnits="userSpaceOnUse" height="146.629" id="Filter_8" width="158.492" x="67.3605" y="9.37144">
<feGaussianBlur in="SourceGraphic" result="Blur" stdDeviation="12.5"/>
</filter>
<filter color-interpolation-filters="sRGB" filterUnits="userSpaceOnUse" height="158.141" id="Filter_9" width="150.524" x="150.062" y="47.7501">
<feGaussianBlur in="SourceGraphic" result="Blur" stdDeviation="12.5"/>
</filter>
<filter color-interpolation-filters="sRGB" filterUnits="userSpaceOnUse" height="153.215" id="Filter_10" width="129.181" x="44.1415" y="-38.8301">
<feGaussianBlur in="SourceGraphic" result="Blur" stdDeviation="12.5"/>
</filter>
<filter color-interpolation-filters="sRGB" filterUnits="userSpaceOnUse" height="156.597" id="Filter_11" width="159.801" x="98.6668" y="111.151">
<feGaussianBlur in="SourceGraphic" result="Blur" stdDeviation="12.5"/>
</filter>
<filter color-interpolation-filters="sRGB" filterUnits="userSpaceOnUse" height="130.393" id="Filter_12" width="153.706" x="-32.6187" y="122.836">
<feGaussianBlur in="SourceGraphic" result="Blur" stdDeviation="12.5"/>
</filter>
<filter color-interpolation-filters="sRGB" filterUnits="userSpaceOnUse" height="152.888" id="Filter_13" width="152.273" x="144.552" y="0.246279">
<feGaussianBlur in="SourceGraphic" result="Blur" stdDeviation="12.5"/>
</filter>
<filter color-interpolation-filters="sRGB" filterUnits="userSpaceOnUse" height="130.195" id="Filter_14" width="153.625" x="88.4013" y="-37.4732">
<feGaussianBlur in="SourceGraphic" result="Blur" stdDeviation="12.5"/>
</filter>
<filter color-interpolation-filters="sRGB" filterUnits="userSpaceOnUse" height="148.538" id="Filter_15" width="156.823" x="104.796" y="41.3173">
<feGaussianBlur in="SourceGraphic" result="Blur" stdDeviation="12.5"/>
</filter>
<filter color-interpolation-filters="sRGB" filterUnits="userSpaceOnUse" height="154.845" id="Filter_16" width="132.847" x="182.992" y="107.278">
<feGaussianBlur in="SourceGraphic" result="Blur" stdDeviation="12.5"/>
</filter>
<filter color-interpolation-filters="sRGB" filterUnits="userSpaceOnUse" height="152.961" id="Filter_17" width="159.504" x="27.6131" y="143.325">
<feGaussianBlur in="SourceGraphic" result="Blur" stdDeviation="12.5"/>
</filter>
<filter color-interpolation-filters="sRGB" filterUnits="userSpaceOnUse" height="130.195" id="Filter_18" width="153.625" x="-40.2935" y="76.788">
<feGaussianBlur in="SourceGraphic" result="Blur" stdDeviation="12.5"/>
</filter>
<filter color-interpolation-filters="sRGB" filterUnits="userSpaceOnUse" height="153.914" id="Filter_19" width="138.666" x="161.216" y="-40.451">
<feGaussianBlur in="SourceGraphic" result="Blur" stdDeviation="12.5"/>
</filter>
<filter color-interpolation-filters="sRGB" filterUnits="userSpaceOnUse" height="153.954" id="Filter_20" width="131" x="160.563" y="132.479">
<feGaussianBlur in="SourceGraphic" result="Blur" stdDeviation="12.5"/>
</filter>
<filter color-interpolation-filters="sRGB" filterUnits="userSpaceOnUse" height="153.209" id="Filter_21" width="131.232" x="48.2429" y="41.6946">
<feGaussianBlur in="SourceGraphic" result="Blur" stdDeviation="12.5"/>
</filter>
<filter color-interpolation-filters="sRGB" filterUnits="userSpaceOnUse" height="153.809" id="Filter_22" width="130.647" x="-37.8227" y="4.65174">
<feGaussianBlur in="SourceGraphic" result="Blur" stdDeviation="12.5"/>
</filter>
<filter color-interpolation-filters="sRGB" filterUnits="userSpaceOnUse" height="96.824" id="Filter_23" width="159.308" x="47.65" y="86.926">
<feDropShadow dx="9.18485e-17" dy="1.5" flood-color="#000000" flood-opacity="1" in="SourceGraphic" result="Shadow" stdDeviation="2.5"/>
</filter>
<filter color-interpolation-filters="sRGB" filterUnits="userSpaceOnUse" height="156.192" id="Filter_24" width="257.027" x="1.48673" y="54.3239">
<feDropShadow dx="1.48184e-16" dy="2.42002" flood-color="#000000" flood-opacity="1" in="SourceGraphic" result="Shadow" stdDeviation="4.03337"/>
</filter>
</defs>
<clipPath id="ArtboardFrame">
<rect height="260" width="260" x="0" y="0"/>
</clipPath>
<g clip-path="url(#ArtboardFrame)" id="Layer-3" visibility="hidden">
<path d="M157.022 262.07C153.178 262.17 149.333 261.909 145.489 261.813C144.454 261.787 143.138 261.893 142.185 261.407C138.824 259.69 136.703 255.695 134.864 252.469C133.528 250.124 131.491 247.948 130.404 245.472C128.076 240.168 127.393 234.092 128.146 228.303C128.558 225.144 131.564 222.99 132.224 219.99C132.816 217.299 132.836 214.11 132.667 211.36C132.125 202.523 121.647 193.711 127.066 184.59C129.323 180.79 137.809 175.954 142.112 177.313C145.032 178.235 147.153 180.691 150.665 179.94C154.141 179.196 157.563 175.647 160.678 173.936C164.528 171.821 169.257 170.894 173.605 170.705C178.228 170.504 180.367 174.284 182.747 177.992C186.314 183.551 186.428 187.128 186.264 193.659C186.198 196.311 186.398 199.082 185.216 201.537C183.099 205.93 177.215 210.277 178.464 215.832C179.171 218.978 181.586 223.33 184.684 224.722C187.596 226.03 191.007 225.962 192.381 229.299C197.194 240.988 189.302 244.723 183.527 252.682C181.729 255.161 181.061 259.763 177.901 260.949C176.177 261.596 174.016 261.038 172.21 261.148C167.152 261.455 162.106 261.937 157.022 262.07Z" fill="#03045e" fill-rule="nonzero" filter="url(#Filter)" opacity="1" stroke="none"/>
<path d="M22.5639 260.269C18.7203 260.371 14.8755 260.111 11.0317 260.016C9.99637 259.99 8.68008 260.097 7.72741 259.611C4.36568 257.895 2.24331 253.901 0.403852 250.675C-0.932626 248.331-2.97033 246.155-4.05798 243.679C-6.38794 238.376-7.0721 232.3-6.32059 226.511C-5.91039 223.352-2.9049 221.197-2.2455 218.197C-1.65381 215.505-1.63473 212.316-1.80432 209.567C-2.34949 200.729-12.8302 191.92-7.41361 182.798C-5.15714 178.997 3.3276 174.159 7.63089 175.517C10.5513 176.438 12.6725 178.894 16.1849 178.141C19.6602 177.397 23.0817 173.846 26.1956 172.135C30.0455 170.019 34.7741 169.09 39.1217 168.9C43.7448 168.697 45.8851 172.477 48.2656 176.185C51.834 181.743 51.9498 185.32 51.7877 191.85C51.7218 194.503 51.923 197.274 50.741 199.729C48.6262 204.122 42.7427 208.471 43.9931 214.025C44.7013 217.171 47.1173 221.523 50.2164 222.914C53.128 224.221 56.5395 224.152 57.9145 227.489C62.7303 239.177 54.8391 242.914 49.067 250.874C47.2692 253.354 46.6028 257.956 43.4435 259.143C41.7189 259.791 39.5582 259.233 37.7526 259.343C32.6946 259.652 27.6488 260.135 22.5639 260.269Z" fill="#03045e" fill-rule="nonzero" filter="url(#Filter_2)" opacity="1" stroke="none"/>
<path d="M71.564 41.7104C75.4076 41.5849 79.2528 41.8443 83.0969 41.9287C84.1323 41.9514 85.4485 41.8313 86.4019 42.3462C89.7661 44.1631 91.894 48.4185 93.738 51.855C95.0777 54.3518 97.1185 56.666 98.2096 59.3046C100.547 64.9572 101.239 71.4415 100.496 77.6262C100.09 81.002 97.0874 83.3167 96.4321 86.5228C95.844 89.3997 95.8293 92.8052 96.0027 95.7399C96.5601 105.174 107.053 114.533 101.649 124.299C99.3977 128.367 90.9193 133.572 86.614 132.142C83.6922 131.172 81.5676 128.559 78.0561 129.378C74.5817 130.189 71.165 133.996 68.0533 135.837C64.2062 138.114 59.4787 139.127 55.1313 139.35C50.5083 139.588 48.3627 135.561 45.977 131.613C42.4009 125.695 42.2802 121.876 42.4333 114.901C42.4955 112.069 42.2906 109.111 43.4692 106.484C45.5781 101.783 51.4558 97.1124 50.1977 91.1875C49.4852 87.8316 47.063 83.1961 43.9619 81.7245C41.0484 80.342 37.6369 80.4315 36.2573 76.8745C31.4253 64.4158 39.3116 60.3892 45.073 51.8631C46.8674 49.2075 47.5275 44.2902 50.6853 43.0083C52.409 42.3086 54.5706 42.8941 56.3761 42.7682C61.4338 42.4154 66.4791 41.8765 71.564 41.7104Z" fill="#90e0ef" fill-rule="nonzero" filter="url(#Filter_3)" opacity="1" stroke="none"/>
<path d="M272.312 232.373C272.348 236.583 271.985 240.786 271.803 244.992C271.754 246.125 271.846 247.568 271.289 248.601C269.323 252.245 264.859 254.486 261.252 256.433C258.63 257.848 256.181 260.033 253.419 261.173C247.502 263.614 240.763 264.237 234.37 263.295C230.88 262.781 228.554 259.446 225.247 258.662C222.279 257.959 218.749 257.872 215.702 258.001C205.908 258.415 195.949 269.706 185.958 263.588C181.796 261.039 176.608 251.651 178.196 246.969C179.274 243.791 182.035 241.52 181.271 237.659C180.516 233.839 176.653 230.021 174.821 226.577C172.555 222.318 171.62 217.123 171.496 212.36C171.363 207.295 175.59 205.03 179.741 202.501C185.965 198.709 189.927 198.656 197.153 198.969C200.088 199.096 203.159 198.933 205.854 200.277C210.675 202.683 215.372 209.214 221.546 207.96C225.042 207.249 229.907 204.694 231.508 201.331C233.013 198.17 233.004 194.434 236.725 192.998C249.759 187.968 253.74 196.684 262.437 203.167C265.146 205.186 270.228 206.011 271.479 209.493C272.162 211.395 271.502 213.748 271.588 215.727C271.83 221.271 272.265 226.804 272.312 232.373Z" fill="#90e0ef" fill-rule="nonzero" filter="url(#Filter_4)" opacity="1" stroke="none"/>
<path d="M118.339 234.317C118.369 238.162 118.039 242.002 117.873 245.843C117.828 246.878 117.911 248.196 117.407 249.139C115.63 252.469 111.597 254.517 108.338 256.297C105.97 257.59 103.757 259.588 101.262 260.63C95.9161 262.862 89.829 263.434 84.055 262.576C80.9034 262.108 78.8042 259.063 75.8171 258.349C73.1367 257.708 69.9484 257.63 67.1966 257.749C58.3506 258.132 49.3504 268.449 40.3289 262.865C36.5706 260.539 31.8894 251.967 33.3256 247.69C34.3003 244.787 36.7949 242.711 36.1071 239.185C35.4265 235.697 31.9397 232.211 30.2858 229.066C28.2411 225.178 27.3995 220.433 27.289 216.082C27.1714 211.456 30.9899 209.386 34.7408 207.074C40.3635 203.608 43.9419 203.558 50.4685 203.841C53.1192 203.955 55.8934 203.805 58.3267 205.032C62.6802 207.227 66.9202 213.19 72.4963 212.042C75.6546 211.391 80.0497 209.056 81.4978 205.983C82.8583 203.096 82.8517 199.683 86.2134 198.37C97.988 193.77 101.58 201.729 109.432 207.646C111.878 209.489 116.467 210.24 117.596 213.421C118.212 215.157 117.615 217.307 117.692 219.114C117.908 224.177 118.298 229.231 118.339 234.317Z" fill="#90e0ef" fill-rule="nonzero" filter="url(#Filter_5)" opacity="1" stroke="none"/>
<path d="M-1.78933 26.7498C-1.9859 22.9098-1.82206 19.0598-1.82206 15.2149C-1.82206 14.1792-1.96161 12.8659-1.49916 11.9015C0.132729 8.49822 4.07314 6.27739 7.25258 4.35845C9.56265 2.96422 11.6873 0.873147 14.1353-0.275597C19.3794-2.73644 25.4361-3.57115 31.2417-2.96352C34.4106-2.63185 36.6394 0.319245 39.6545 0.904004C42.3601 1.42872 45.5488 1.36866 48.2928 1.13091C57.1141 0.366607 65.6603-10.3294 74.9146-5.14091C78.7698-2.97943 83.8168 5.38264 82.5667 9.71829C81.7183 12.6607 79.3157 14.8422 80.1551 18.3348C80.9857 21.7905 84.6199 25.1229 86.408 28.1934C88.6188 31.9896 89.6645 36.6937 89.9629 41.0352C90.2801 45.6519 86.5546 47.8853 82.9071 50.3571C77.4393 54.0623 73.8664 54.2668 67.3337 54.2668C64.6805 54.2668 61.9153 54.5366 59.4314 53.4159C54.9871 51.4107 50.4935 45.637 44.9722 47.0248C41.845 47.8109 37.5548 50.3342 36.2408 53.4668C35.0063 56.41 35.1602 59.8187 31.8584 61.276C20.2935 66.3804 16.3614 58.5844 8.26055 53.0115C5.73741 51.2758 1.12007 50.7238-0.145014 47.595C-0.835588 45.887-0.331801 43.7131-0.486822 41.9108C-0.921069 36.8621-1.52928 31.8298-1.78933 26.7498Z" fill="#00b4d8" fill-rule="nonzero" filter="url(#Filter_6)" opacity="1" stroke="none"/>
<path d="M99.9061 199.052C97.1121 196.41 94.5719 193.513 91.9166 190.732C91.2014 189.983 90.1935 189.129 89.862 188.112C88.692 184.524 90.0082 180.197 90.9826 176.613C91.6905 174.009 91.7831 171.03 92.7603 168.508C94.8537 163.107 98.6578 158.321 103.276 154.751C105.797 152.802 109.447 153.398 112.032 151.738C114.351 150.249 116.616 148.004 118.436 145.937C124.288 139.292 123.083 125.654 133.359 123.016C137.64 121.917 147.065 124.48 149.155 128.479C150.573 131.193 150.342 134.43 153.361 136.376C156.349 138.302 161.278 138.202 164.692 139.188C168.912 140.407 172.917 143.087 176.131 146.021C179.549 149.141 178.397 153.329 177.466 157.636C176.07 164.091 173.627 166.707 168.902 171.218C166.983 173.05 165.17 175.155 162.599 176.06C158 177.679 150.763 176.606 147.728 181.423C146.009 184.151 144.649 188.939 145.862 192.112C147.001 195.093 149.467 197.452 148.085 200.786C143.246 212.465 135.018 209.542 125.311 211.105C122.287 211.592 118.566 214.382 115.491 212.993C113.812 212.234 112.675 210.314 111.318 209.117C107.517 205.766 103.602 202.546 99.9061 199.052Z" fill="#00b4d8" fill-rule="nonzero" filter="url(#Filter_7)" opacity="1" stroke="none"/>
<path d="M188.444 62.8066C190.282 66.1841 191.799 69.7265 193.461 73.1936C193.909 74.1274 194.602 75.2513 194.602 76.3208C194.602 80.0951 192.009 83.8013 189.972 86.9063C188.492 89.1622 187.48 91.9663 185.769 94.0605C182.105 98.5467 177.004 101.918 171.507 103.88C168.506 104.951 165.22 103.254 162.249 104.03C159.582 104.727 156.733 106.159 154.361 107.56C146.737 112.063 143.656 125.403 133.068 124.725C128.657 124.443 120.491 119.085 119.743 114.635C119.236 111.615 120.46 108.609 118.193 105.823C115.95 103.066 111.232 101.632 108.292 99.6367C104.657 97.1695 101.681 93.3799 99.5346 89.5941C97.2525 85.5683 99.6462 81.9437 101.867 78.1379C105.195 72.4329 108.328 70.7038 114.219 67.8794C116.611 66.7323 118.988 65.2935 121.712 65.2301C126.587 65.1167 133.135 68.3801 137.513 64.7416C139.993 62.6808 142.771 58.5507 142.601 55.1578C142.442 51.9702 140.83 48.9631 143.177 46.2215C151.398 36.6188 158.314 41.9485 168.028 43.4712C171.054 43.9454 175.456 42.4469 177.949 44.7212C179.311 45.9627 179.796 48.1408 180.715 49.6989C183.29 54.0636 186.014 58.3383 188.444 62.8066Z" fill="#00b4d8" fill-rule="nonzero" filter="url(#Filter_8)" opacity="1" stroke="none"/>
<path d="M256.331 92.1859C259.599 94.6537 262.639 97.4108 265.782 100.036C266.628 100.743 267.793 101.53 268.279 102.551C269.992 106.154 269.228 110.759 268.715 114.562C268.342 117.324 268.66 120.417 267.997 123.12C266.575 128.911 263.292 134.228 258.994 138.364C256.648 140.622 252.777 140.354 250.325 142.318C248.125 144.08 246.086 146.621 244.484 148.934C239.333 156.37 242.481 170.372 232.181 174.083C227.89 175.629 217.75 173.876 215.025 169.935C213.175 167.261 212.965 163.889 209.56 162.162C206.192 160.454 201.088 161.027 197.408 160.332C192.857 159.473 188.327 157.081 184.583 154.35C180.601 151.447 181.215 147.002 181.582 142.455C182.133 135.639 184.306 132.699 188.583 127.579C190.32 125.499 191.909 123.147 194.452 121.966C199.001 119.851 206.662 120.271 209.143 114.996C210.548 112.008 211.294 106.922 209.593 103.753C207.996 100.776 205.108 98.5694 206.079 94.9863C209.478 82.4362 218.425 84.6771 228.284 82.1324C231.355 81.3398 234.829 78.0975 238.215 79.2422C240.063 79.867 241.511 81.7462 243.085 82.8553C247.497 85.9621 252.009 88.9213 256.331 92.1859Z" fill="#90e0ef" fill-rule="nonzero" filter="url(#Filter_9)" opacity="1" stroke="none"/>
<path d="M104.297 83.129C100.453 83.0908 96.6198 82.6922 92.782 82.4574C91.7482 82.3942 90.4289 82.4533 89.4945 81.9328C86.1972 80.0962 84.2211 76.0276 82.4998 72.7369C81.2492 70.346 79.2918 68.0977 78.2946 65.5841C76.1585 60.1996 75.6951 54.1033 76.6561 48.3455C77.1806 45.2028 80.2623 43.1584 81.03 40.1845C81.7189 37.516 81.8537 34.3296 81.7839 31.5762C81.5596 22.7247 71.4052 13.5414 77.1491 4.6212C79.5419 0.905149 88.1965-3.62195 92.4477-2.10949C95.3328-1.08306 97.3635 1.44825 100.901 0.823624C104.401 0.20558 107.949-3.2184 111.123-4.81574C115.047-6.7906 119.806-7.54718 124.158-7.5799C128.785-7.61469 130.787-3.75979 133.031 0.0318457C136.396 5.71561 136.382 9.29438 135.983 15.8148C135.821 18.4631 135.922 21.2396 134.651 23.6505C132.379 27.964 126.341 32.0968 127.389 37.6925C127.983 40.8619 130.24 45.2981 133.286 46.8009C136.149 48.2128 139.56 48.2673 140.813 51.6519C145.202 63.5069 137.181 66.9556 131.124 74.7012C129.237 77.1136 128.404 81.6887 125.204 82.7604C123.457 83.3454 121.318 82.7098 119.51 82.7545C114.444 82.8797 109.384 83.1796 104.297 83.129Z" fill="#647dff" fill-rule="nonzero" filter="url(#Filter_10)" opacity="1" stroke="none"/>
<path d="M139.768 219.315C137.058 216.2 134.641 212.843 132.092 209.597C131.405 208.722 130.418 207.704 130.162 206.589C129.257 202.654 131.049 198.215 132.411 194.526C133.4 191.846 133.774 188.698 135.04 186.135C137.753 180.645 142.217 176 147.43 172.735C150.275 170.954 154.078 171.995 156.964 170.527C159.554 169.21 162.155 167.084 164.271 165.098C171.073 158.713 171.06 144.122 182.168 142.481C186.795 141.798 196.521 145.575 198.36 150.049C199.609 153.085 199.065 156.49 202.076 158.893C205.056 161.27 210.276 161.719 213.794 163.148C218.142 164.915 222.128 168.207 225.254 171.678C228.578 175.37 226.973 179.68 225.59 184.14C223.517 190.826 220.693 193.323 215.28 197.574C213.082 199.3 210.97 201.327 208.169 201.997C203.158 203.195 195.606 201.244 191.952 206.008C189.883 208.707 188.002 213.629 188.99 217.129C189.919 220.417 192.307 223.195 190.538 226.574C184.342 238.408 175.914 234.384 165.508 234.949C162.266 235.126 158.075 237.664 154.952 235.845C153.248 234.852 152.223 232.689 150.9 231.268C147.192 227.288 143.351 223.435 139.768 219.315Z" fill="#647dff" fill-rule="nonzero" filter="url(#Filter_11)" opacity="1" stroke="none"/>
<path d="M-1.36048 184.867C-1.42187 181.022-1.12273 177.18-0.987495 173.338C-0.951069 172.303-1.04435 170.985-0.548262 170.038C1.20231 166.694 5.21839 164.613 8.46336 162.807C10.821 161.495 13.0179 159.48 15.5048 158.418C20.8322 156.143 26.9145 155.522 32.6951 156.333C35.8504 156.776 37.974 159.804 40.9668 160.494C43.6522 161.114 46.841 161.166 49.5917 161.025C58.4344 160.571 67.3516 150.183 76.4176 155.693C80.1944 157.989 84.9442 166.524 83.5424 170.813C82.591 173.723 80.1132 175.819 80.8293 179.339C81.5378 182.822 85.0525 186.28 86.7316 189.411C88.8074 193.283 89.6871 198.021 89.8325 202.37C89.9872 206.995 86.1854 209.096 82.4532 211.438C76.8585 214.949 73.2806 215.027 66.752 214.798C64.1004 214.704 61.3275 214.877 58.8845 213.669C54.5135 211.509 50.2257 205.581 44.659 206.774C41.5061 207.449 37.1299 209.82 35.7065 212.905C34.3692 215.803 34.4032 219.215 31.0521 220.555C19.3148 225.249 15.6594 217.32 7.75954 211.466C5.299 209.642 0.703936 208.928-0.450323 205.757C-1.0804 204.026-0.500466 201.871-0.592002 200.064C-0.848414 195.003-1.27926 189.953-1.36048 184.867Z" fill="#647dff" fill-rule="nonzero" filter="url(#Filter_12)" opacity="1" stroke="none"/>
<path d="M190.86 41.4049C193.617 38.7255 196.62 36.3104 199.511 33.7755C200.29 33.0927 201.185 32.122 202.215 31.8338C205.85 30.8171 210.118 32.3157 213.657 33.4412C216.228 34.2589 219.201 34.4778 221.679 35.5611C226.986 37.8817 231.607 41.8854 234.978 46.6512C236.818 49.2525 236.068 52.8739 237.616 55.5266C239.005 57.9068 241.153 60.2647 243.141 62.1712C249.531 68.3 263.208 67.6741 265.408 78.053C266.324 82.3768 263.364 91.6846 259.28 93.6031C256.509 94.905 253.284 94.5368 251.212 97.4705C249.161 100.373 249.051 105.303 247.921 108.672C246.525 112.837 243.677 116.724 240.609 119.811C237.347 123.093 233.212 121.764 228.949 120.652C222.558 118.983 220.048 116.431 215.742 111.52C213.992 109.525 211.966 107.623 211.172 105.017C209.749 100.353 211.128 93.1681 206.444 89.9316C203.791 88.0985 199.066 86.5363 195.844 87.6136C192.817 88.6258 190.356 90.9889 187.083 89.467C175.621 84.1367 178.89 76.0404 177.739 66.2753C177.381 63.2338 174.752 59.3982 176.27 56.3842C177.099 54.7389 179.066 53.6845 180.319 52.3797C183.829 48.7246 187.212 44.9496 190.86 41.4049Z" fill="#647dff" fill-rule="nonzero" filter="url(#Filter_13)" opacity="1" stroke="none"/>
<path d="M119.656 24.2497C119.611 20.405 119.926 16.5645 120.078 12.7225C120.119 11.6876 120.031 10.3699 120.531 9.42441C122.296 6.08813 126.321 4.02442 129.574 2.23235C131.937 0.9303 134.142-1.07536 136.634-2.12667C141.971-4.3788 148.056-4.97402 153.833-4.13791C156.986-3.68154 159.097-0.644846 162.086 0.0583612C164.769 0.689368 167.958 0.755092 170.709 0.625737C179.554 0.209899 188.515-10.1408 197.557-4.59137C201.324-2.27955 206.038 6.27505 204.618 10.558C203.654 13.4647 201.167 15.5497 201.868 19.0727C202.562 22.5585 206.062 26.0316 207.727 29.1702C209.787 33.0506 210.646 37.7923 210.773 42.1422C210.908 46.7678 207.097 48.8527 203.355 51.1786C197.746 54.6653 194.167 54.7288 187.64 54.4712C184.989 54.3665 182.215 54.5271 179.777 53.3093C175.415 51.1305 171.153 45.184 165.581 46.353C162.425 47.0151 158.039 49.3673 156.603 52.4457C155.253 55.3378 155.272 58.75 151.916 60.076C140.158 64.7203 136.537 56.7753 128.662 50.8874C126.209 49.0535 121.617 48.3198 120.477 45.1435C119.854 43.4097 120.443 41.2573 120.359 39.4503C120.124 34.3884 119.715 29.336 119.656 24.2497Z" fill="#0077b6" fill-rule="nonzero" filter="url(#Filter_14)" opacity="1" stroke="none"/>
<path d="M143.772 140.445C141.559 137.301 139.645 133.956 137.596 130.703C137.044 129.827 136.226 128.79 136.103 127.727C135.669 123.978 137.82 119.999 139.487 116.68C140.698 114.269 141.381 111.367 142.84 109.091C145.965 104.213 150.645 100.278 155.881 97.6978C158.739 96.2892 162.197 97.598 165.06 96.4856C167.629 95.4873 170.295 93.7368 172.49 92.0729C179.546 86.7241 181.075 73.1188 191.671 72.5757C196.085 72.3495 204.813 76.7342 206.066 81.0689C206.917 84.0107 206.047 87.1371 208.619 89.6447C211.163 92.1258 216.015 93.008 219.164 94.6528C223.058 96.6862 226.451 100.109 229.017 103.623C231.746 107.36 229.785 111.236 228.016 115.271C225.365 121.321 222.451 123.398 216.924 126.881C214.679 128.295 212.484 129.997 209.784 130.373C204.955 131.046 198.076 128.556 194.144 132.673C191.917 135.005 189.632 139.427 190.19 142.778C190.715 145.926 192.662 148.728 190.645 151.721C183.581 162.205 176.099 157.704 166.274 157.307C163.214 157.184 159.013 159.178 156.275 157.205C154.78 156.128 154.048 154.02 152.956 152.578C149.897 148.538 146.7 144.604 143.772 140.445Z" fill="#0077b6" fill-rule="nonzero" filter="url(#Filter_15)" opacity="1" stroke="none"/>
<path d="M249.903 138.83C253.739 138.559 257.591 138.649 261.436 138.574C262.471 138.554 263.781 138.389 264.755 138.833C268.189 140.398 270.486 144.295 272.466 147.437C273.905 149.719 276.036 151.803 277.232 154.228C279.794 159.424 280.746 165.463 280.251 171.279C279.981 174.454 277.074 176.74 276.548 179.766C276.076 182.481 276.197 185.668 276.488 188.407C277.423 197.211 288.283 205.549 283.275 214.902C281.189 218.798 272.926 224.006 268.567 222.841C265.609 222.049 263.381 219.689 259.905 220.596C256.466 221.494 253.205 225.192 250.17 227.039C246.417 229.323 241.734 230.46 237.399 230.842C232.789 231.249 230.484 227.567 227.942 223.968C224.132 218.574 223.858 215.005 223.731 208.474C223.68 205.821 223.357 203.062 224.429 200.557C226.348 196.074 232.033 191.47 230.539 185.976C229.692 182.865 227.086 178.624 223.929 177.371C220.962 176.194 217.557 176.414 216.036 173.141C210.708 161.677 218.427 157.595 223.841 149.387C225.528 146.831 225.99 142.204 229.094 140.878C230.788 140.155 232.972 140.616 234.771 140.427C239.81 139.895 244.829 139.189 249.903 138.83Z" fill="#0077b6" fill-rule="nonzero" filter="url(#Filter_16)" opacity="1" stroke="none"/>
<path d="M142.983 253.054C140.562 256.153 137.843 259.006 135.26 261.971C134.565 262.769 133.795 263.88 132.773 264.298C129.167 265.772 124.489 264.708 120.628 263.947C117.824 263.394 114.701 263.509 111.949 262.67C106.055 260.872 100.596 257.248 96.3095 252.689C93.9696 250.2 94.1497 246.355 92.1041 243.779C90.2686 241.468 87.6495 239.268 85.2707 237.518C77.6234 231.891 63.5266 234.116 59.5282 223.595C57.8625 219.212 59.3983 209.208 63.3219 206.746C65.9846 205.076 69.3931 205.087 71.0605 201.802C72.7103 198.553 72.0099 193.423 72.6265 189.795C73.3889 185.311 75.7033 180.947 78.3785 177.389C81.2234 173.606 85.7366 174.509 90.3469 175.174C97.2577 176.17 100.285 178.53 105.568 183.133C107.713 185.002 110.131 186.742 111.387 189.357C113.634 194.034 113.389 201.652 118.787 204.473C121.844 206.07 127.008 207.148 130.175 205.658C133.151 204.259 135.316 201.522 138.965 202.725C151.747 206.939 149.69 215.72 152.497 225.725C153.372 228.841 156.735 232.52 155.656 235.824C155.067 237.627 153.2 238.948 152.114 240.447C149.074 244.646 146.185 248.954 142.983 253.054Z" fill="#0077b6" fill-rule="nonzero" filter="url(#Filter_17)" opacity="1" stroke="none"/>
<path d="M-9.03919 138.511C-9.08418 134.666-8.76864 130.826-8.61702 126.984C-8.57617 125.949-8.66383 124.631-8.16371 123.686C-6.39888 120.349-2.37396 118.286 0.878685 116.494C3.24194 115.192 5.4474 113.186 7.93878 112.135C13.2758 109.882 19.3607 109.287 25.1379 110.123C28.2912 110.58 30.4019 113.616 33.3917 114.32C36.0744 114.951 39.263 115.016 42.0143 114.887C50.8588 114.471 59.8202 104.12 68.8626 109.67C72.6296 111.982 77.343 120.536 75.9229 124.819C74.9591 127.726 72.4723 129.811 73.1734 133.334C73.867 136.82 77.367 140.293 79.0326 143.431C81.092 147.312 81.9514 152.054 82.0783 156.403C82.2132 161.029 78.4025 163.114 74.6604 165.44C69.0507 168.927 65.4725 168.99 58.9449 168.732C56.2938 168.628 53.5201 168.788 51.0823 167.571C46.7206 165.392 42.4582 159.445 36.8864 160.614C33.7306 161.276 29.3443 163.628 27.9078 166.707C26.5582 169.599 26.5776 173.011 23.2208 174.337C11.4636 178.982 7.84205 171.037-0.03276 165.149C-2.48549 163.315-7.07747 162.581-8.21819 159.405C-8.84087 157.671-8.25175 155.519-8.33557 153.711C-8.57039 148.65-8.97968 143.597-9.03919 138.511Z" fill="#0077b6" fill-rule="nonzero" filter="url(#Filter_18)" opacity="1" stroke="none"/>
<path d="M233.225-9.17715C237.492-9.28007 241.762-9.02243 246.03-8.92872C247.18-8.90347 248.641-9.01098 249.701-8.52514C253.443-6.8107 255.822-2.81711 257.882 0.408345C259.379 2.75184 261.654 4.92695 262.876 7.40234C265.492 12.7051 266.286 18.7807 265.484 24.5701C265.046 27.7302 261.721 29.8865 261.006 32.8867C260.364 35.5788 260.361 38.7682 260.564 41.5174C261.219 50.3551 272.905 59.16 266.942 68.2856C264.458 72.0872 255.065 76.9292 250.279 75.5737C247.032 74.6538 244.663 72.1986 240.767 72.9527C236.913 73.6988 233.134 77.2509 229.686 78.9638C225.424 81.0815 220.179 82.0123 215.353 82.2047C210.221 82.4094 207.823 78.6303 205.159 74.9234C201.166 69.3667 201.018 65.7896 201.161 59.2585C201.219 56.606 200.981 53.8349 202.279 51.3789C204.603 46.9846 211.111 42.6328 209.691 37.0789C208.887 33.9333 206.18 29.5827 202.732 28.1926C199.492 26.8867 195.704 26.9575 194.159 23.6209C188.747 11.9344 197.487 8.19332 203.851 0.230225C205.834-2.25001 206.548-6.85278 210.049-8.0413C211.96-8.69008 214.362-8.13342 216.366-8.24448C221.98-8.55557 227.58-9.04098 233.225-9.17715Z" fill="#03045e" fill-rule="nonzero" filter="url(#Filter_19)" opacity="1" stroke="none"/>
<path d="M228.58 163.758C232.423 163.645 236.269 163.894 240.113 163.978C241.148 164.001 242.464 163.89 243.418 164.374C246.785 166.08 248.919 170.068 250.768 173.289C252.111 175.629 254.155 177.799 255.249 180.272C257.595 185.568 258.296 191.642 257.561 197.433C257.16 200.594 254.161 202.757 253.51 205.759C252.926 208.452 252.916 211.641 253.093 214.39C253.664 223.226 264.17 232.005 258.779 241.143C256.534 244.95 248.063 249.812 243.756 248.467C240.833 247.554 238.705 245.105 235.194 245.867C231.721 246.622 228.31 250.182 225.201 251.902C221.357 254.029 216.631 254.971 212.284 255.174C207.662 255.39 205.51 251.616 203.119 247.915C199.535 242.368 199.409 238.791 199.552 232.26C199.611 229.607 199.402 226.837 200.577 224.378C202.679 219.979 208.55 215.613 207.284 210.063C206.566 206.919 204.138 202.575 201.035 201.192C198.119 199.893 194.708 199.972 193.324 196.639C188.474 184.965 196.355 181.205 202.104 173.229C203.895 170.744 204.548 166.14 207.704 164.944C209.427 164.291 211.589 164.842 213.394 164.727C218.451 164.404 223.496 163.906 228.58 163.758Z" fill="#03045e" fill-rule="nonzero" filter="url(#Filter_20)" opacity="1" stroke="none"/>
<path d="M125.951 76.8976C129.706 77.7231 133.376 78.8989 137.084 79.9153C138.083 80.1891 139.386 80.4017 140.194 81.1026C143.045 83.5761 144.145 87.9634 145.155 91.537C145.889 94.1335 147.344 96.7353 147.805 99.3999C148.792 105.108 147.996 111.17 145.875 116.608C144.718 119.577 141.283 120.946 139.922 123.7C138.7 126.17 137.915 129.261 137.419 131.971C135.824 140.68 143.881 151.75 136.43 159.303C133.327 162.45 123.928 165.107 120.077 162.755C117.463 161.159 115.995 158.265 112.404 158.152C108.852 158.039 104.678 160.663 101.244 161.576C96.998 162.704 92.1848 162.469 87.9189 161.609C83.3826 160.695 82.2134 156.512 80.7938 152.34C78.6658 146.088 79.4131 142.588 81.14 136.288C81.8414 133.729 82.3121 130.991 84.0496 128.891C87.1583 125.135 93.9145 122.328 94.0357 116.636C94.1043 113.412 92.8048 108.608 90.131 106.512C87.6189 104.544 84.2907 103.791 83.7581 100.221C81.8925 87.7184 90.4506 85.9872 97.9667 79.6476C100.308 77.6731 102.061 73.3659 105.413 72.973C107.242 72.7585 109.206 73.819 110.985 74.1459C115.969 75.0618 120.983 75.8055 125.951 76.8976Z" fill="#03045e" fill-rule="nonzero" filter="url(#Filter_21)" opacity="1" stroke="none"/>
<path d="M24.6052 127.196C20.7611 127.279 16.9177 127.001 13.0744 126.887C12.0391 126.856 10.7223 126.956 9.77205 126.465C6.41868 124.733 4.31571 120.729 2.49193 117.494C1.16684 115.143-0.860286 112.958-1.93591 110.477C-4.24011 105.162-4.89479 99.0831-4.1152 93.2981C-3.68968 90.1404-0.673766 88.0001 0.00017764 85.0037C0.604925 82.3148 0.639473 79.1258 0.483226 76.3759C-0.0190616 67.5358-10.4569 58.6761-4.99612 49.5798C-2.72124 45.7904 5.78687 40.9937 10.0835 42.3718C12.9995 43.3071 15.1087 45.7734 18.6247 45.0379C22.1036 44.3102 25.5423 40.7765 28.6644 39.0802C32.5245 36.9831 37.2576 36.0773 41.606 35.9079C46.2301 35.7278 48.3521 39.5179 50.7145 43.2371C54.2559 48.8124 54.3543 52.3898 54.1605 58.9196C54.0818 61.5717 54.2695 64.3436 53.0756 66.7932C50.9395 71.176 45.035 75.4964 46.2584 81.0565C46.9514 84.2056 49.3463 88.5687 52.4386 89.9751C55.3438 91.2964 58.7556 91.2436 60.1144 94.5872C64.8734 106.298 56.9642 109.998 51.1535 117.93C49.3437 120.4 48.655 124.999 45.49 126.171C43.7623 126.81 41.6043 126.242 39.7982 126.344C34.7388 126.628 29.6907 127.087 24.6052 127.196Z" fill="#03045e" fill-rule="nonzero" filter="url(#Filter_22)" opacity="1" stroke="none"/>
</g>
<g clip-path="url(#ArtboardFrame)" id="Layer-1" visibility="hidden">
<path d="M17 1L243 1C251.837 1 259 8.16344 259 17L259 243C259 251.837 251.837 259 243 259L17 259C8.16344 259 1 251.837 1 243L1 17C1 8.16344 8.16344 1 17 1Z" fill="none" opacity="1" stroke="#03045e" stroke-linecap="round" stroke-linejoin="round" stroke-width="2"/>
</g>
<g id="Text" visibility="hidden">
<text fill="#90e0ef" filter="url(#Filter_23)" font-family="SourceCodeProRoman-ExtraBold" font-size="128" stroke="#03045e" stroke-linecap="butt" stroke-linejoin="bevel" stroke-width="1" text-anchor="start" transform="matrix(1 0 0 1 51.7 49.5)" x="0" y="0">
<tspan font-weight="bold" textLength="153.6" x="0" y="126">VZ
</tspan>
</text>
</g>
<g id="Layer-2">
<path d="M12.375 62.7929L52.5077 197.207L92.2874 197.207L132.42 62.7929L98.6905 62.7929L83.918 123.496C82.0551 130.763 80.3874 137.87 78.8762 144.823C77.3651 151.775 75.5958 158.958 73.5824 166.351L72.7252 166.351C70.8387 158.958 69.1389 151.775 67.633 144.823C66.1272 137.87 64.3902 130.763 62.3896 123.496L47.2642 62.7929L12.375 62.7929ZM151.327 62.7929L151.327 90.3715L206.131 90.3715L145.63 177.292L145.63 197.207L247.625 197.207L247.625 169.578L186.418 169.578L246.919 82.708L246.919 62.7929L151.327 62.7929Z" fill="#000000" fill-rule="nonzero" opacity="1" stroke="#000000" stroke-linecap="round" stroke-linejoin="round" stroke-width="1"/>
</g>
<g id="Text-copy" visibility="hidden">
<path d="M12.3768 62.794L52.5089 197.206L92.288 197.206L132.42 62.794L98.691 62.794L83.9187 123.496C82.0558 130.763 80.3882 137.87 78.877 144.823C77.3659 151.775 75.5967 158.957 73.5832 166.351L72.7261 166.351C70.8396 158.957 69.1398 151.775 67.634 144.823C66.1282 137.87 64.3912 130.763 62.3906 123.496L47.2655 62.794L12.3768 62.794ZM151.326 62.794L151.326 90.4226L206.13 90.4226L145.629 177.291L145.629 197.206L247.623 197.206L247.623 169.577L186.417 169.577L246.917 82.7087L246.917 62.794L151.326 62.794Z" fill="#90e0ef" fill-rule="nonzero" filter="url(#Filter_24)" stroke="#03045e" stroke-linecap="butt" stroke-linejoin="bevel" stroke-width="1.61335"/>
</g>
</svg>
